%TF.GenerationSoftware,KiCad,Pcbnew,5.1.9+dfsg1-1+deb11u1*%
%TF.CreationDate,2025-02-19T16:08:48-08:00*%
%TF.ProjectId,soic14,736f6963-3134-42e6-9b69-6361645f7063,rev?*%
%TF.SameCoordinates,Original*%
%TF.FileFunction,Copper,L1,Top*%
%TF.FilePolarity,Positive*%
%FSLAX46Y46*%
G04 Gerber Fmt 4.6, Leading zero omitted, Abs format (unit mm)*
G04 Created by KiCad (PCBNEW 5.1.9+dfsg1-1+deb11u1) date 2025-02-19 16:08:48*
%MOMM*%
%LPD*%
G01*
G04 APERTURE LIST*
%TA.AperFunction,NonConductor*%
%ADD10C,0.100000*%
%TD*%
%TA.AperFunction,SMDPad,CuDef*%
%ADD11R,0.600000X1.500000*%
%TD*%
%TA.AperFunction,ComponentPad*%
%ADD12O,2.400000X1.600000*%
%TD*%
%TA.AperFunction,ComponentPad*%
%ADD13R,2.400000X1.600000*%
%TD*%
%TA.AperFunction,ViaPad*%
%ADD14C,0.800000*%
%TD*%
%TA.AperFunction,Conductor*%
%ADD15C,0.250000*%
%TD*%
%TA.AperFunction,Conductor*%
%ADD16C,0.500000*%
%TD*%
G04 APERTURE END LIST*
D10*
X148090142Y-86377428D02*
X148090142Y-85777428D01*
X148290142Y-86206000D01*
X148490142Y-85777428D01*
X148490142Y-86377428D01*
X148890142Y-85777428D02*
X149004428Y-85777428D01*
X149061571Y-85806000D01*
X149118714Y-85863142D01*
X149147285Y-85977428D01*
X149147285Y-86177428D01*
X149118714Y-86291714D01*
X149061571Y-86348857D01*
X149004428Y-86377428D01*
X148890142Y-86377428D01*
X148833000Y-86348857D01*
X148775857Y-86291714D01*
X148747285Y-86177428D01*
X148747285Y-85977428D01*
X148775857Y-85863142D01*
X148833000Y-85806000D01*
X148890142Y-85777428D01*
X149404428Y-86377428D02*
X149404428Y-85777428D01*
X149404428Y-86063142D02*
X149747285Y-86063142D01*
X149747285Y-86377428D02*
X149747285Y-85777428D01*
X150375857Y-86377428D02*
X150175857Y-86091714D01*
X150033000Y-86377428D02*
X150033000Y-85777428D01*
X150261571Y-85777428D01*
X150318714Y-85806000D01*
X150347285Y-85834571D01*
X150375857Y-85891714D01*
X150375857Y-85977428D01*
X150347285Y-86034571D01*
X150318714Y-86063142D01*
X150261571Y-86091714D01*
X150033000Y-86091714D01*
X151033000Y-85777428D02*
X151404428Y-85777428D01*
X151204428Y-86006000D01*
X151290142Y-86006000D01*
X151347285Y-86034571D01*
X151375857Y-86063142D01*
X151404428Y-86120285D01*
X151404428Y-86263142D01*
X151375857Y-86320285D01*
X151347285Y-86348857D01*
X151290142Y-86377428D01*
X151118714Y-86377428D01*
X151061571Y-86348857D01*
X151033000Y-86320285D01*
%TO.P,C1,2*%
%TO.N,Net-(C1-Pad2)*%
%TA.AperFunction,SMDPad,CuDef*%
G36*
G01*
X150310000Y-106368001D02*
X150310000Y-105467999D01*
G75*
G02*
X150559999Y-105218000I249999J0D01*
G01*
X151210001Y-105218000D01*
G75*
G02*
X151460000Y-105467999I0J-249999D01*
G01*
X151460000Y-106368001D01*
G75*
G02*
X151210001Y-106618000I-249999J0D01*
G01*
X150559999Y-106618000D01*
G75*
G02*
X150310000Y-106368001I0J249999D01*
G01*
G37*
%TD.AperFunction*%
%TO.P,C1,1*%
%TO.N,Net-(C1-Pad1)*%
%TA.AperFunction,SMDPad,CuDef*%
G36*
G01*
X148260000Y-106368001D02*
X148260000Y-105467999D01*
G75*
G02*
X148509999Y-105218000I249999J0D01*
G01*
X149160001Y-105218000D01*
G75*
G02*
X149410000Y-105467999I0J-249999D01*
G01*
X149410000Y-106368001D01*
G75*
G02*
X149160001Y-106618000I-249999J0D01*
G01*
X148509999Y-106618000D01*
G75*
G02*
X148260000Y-106368001I0J249999D01*
G01*
G37*
%TD.AperFunction*%
%TD*%
D11*
%TO.P,J2,14*%
%TO.N,Net-(C1-Pad2)*%
X146050000Y-82009000D03*
%TO.P,J2,13*%
%TO.N,Net-(J1-Pad13)*%
X147320000Y-82009000D03*
%TO.P,J2,12*%
%TO.N,Net-(J1-Pad12)*%
X148590000Y-82009000D03*
%TO.P,J2,11*%
%TO.N,Net-(J1-Pad11)*%
X149860000Y-82009000D03*
%TO.P,J2,10*%
%TO.N,Net-(J1-Pad10)*%
X151130000Y-82009000D03*
%TO.P,J2,9*%
%TO.N,Net-(J1-Pad9)*%
X152400000Y-82009000D03*
%TO.P,J2,8*%
%TO.N,Net-(J1-Pad8)*%
X153670000Y-82009000D03*
%TO.P,J2,7*%
%TO.N,Net-(C1-Pad1)*%
X153670000Y-87409000D03*
%TO.P,J2,6*%
%TO.N,Net-(J1-Pad6)*%
X152400000Y-87409000D03*
%TO.P,J2,5*%
%TO.N,Net-(J1-Pad5)*%
X151130000Y-87409000D03*
%TO.P,J2,4*%
%TO.N,Net-(J1-Pad4)*%
X149860000Y-87409000D03*
%TO.P,J2,3*%
%TO.N,Net-(J1-Pad3)*%
X148590000Y-87409000D03*
%TO.P,J2,2*%
%TO.N,Net-(J1-Pad2)*%
X147320000Y-87409000D03*
%TO.P,J2,1*%
%TO.N,Net-(J1-Pad1)*%
X146050000Y-87409000D03*
%TD*%
D12*
%TO.P,J1,14*%
%TO.N,Net-(C1-Pad2)*%
X153670000Y-90678000D03*
%TO.P,J1,7*%
%TO.N,Net-(C1-Pad1)*%
X146050000Y-105918000D03*
%TO.P,J1,13*%
%TO.N,Net-(J1-Pad13)*%
X153670000Y-93218000D03*
%TO.P,J1,6*%
%TO.N,Net-(J1-Pad6)*%
X146050000Y-103378000D03*
%TO.P,J1,12*%
%TO.N,Net-(J1-Pad12)*%
X153670000Y-95758000D03*
%TO.P,J1,5*%
%TO.N,Net-(J1-Pad5)*%
X146050000Y-100838000D03*
%TO.P,J1,11*%
%TO.N,Net-(J1-Pad11)*%
X153670000Y-98298000D03*
%TO.P,J1,4*%
%TO.N,Net-(J1-Pad4)*%
X146050000Y-98298000D03*
%TO.P,J1,10*%
%TO.N,Net-(J1-Pad10)*%
X153670000Y-100838000D03*
%TO.P,J1,3*%
%TO.N,Net-(J1-Pad3)*%
X146050000Y-95758000D03*
%TO.P,J1,9*%
%TO.N,Net-(J1-Pad9)*%
X153670000Y-103378000D03*
%TO.P,J1,2*%
%TO.N,Net-(J1-Pad2)*%
X146050000Y-93218000D03*
%TO.P,J1,8*%
%TO.N,Net-(J1-Pad8)*%
X153670000Y-105918000D03*
D13*
%TO.P,J1,1*%
%TO.N,Net-(J1-Pad1)*%
X146050000Y-90678000D03*
%TD*%
D14*
%TO.N,Net-(J1-Pad13)*%
X146431000Y-84582000D03*
%TO.N,Net-(J1-Pad12)*%
X147574000Y-84582000D03*
%TO.N,Net-(J1-Pad11)*%
X149098000Y-84582000D03*
%TO.N,Net-(J1-Pad10)*%
X150622000Y-84582000D03*
%TO.N,Net-(J1-Pad9)*%
X151638000Y-84582000D03*
%TO.N,Net-(J1-Pad8)*%
X153162000Y-84582000D03*
%TD*%
D15*
%TO.N,Net-(J1-Pad13)*%
X146431000Y-84137500D02*
X147320000Y-83248500D01*
X147320000Y-83248500D02*
X147320000Y-82009000D01*
X146431000Y-84582000D02*
X146431000Y-84137500D01*
%TO.N,Net-(J1-Pad6)*%
X149733000Y-99695000D02*
X146050000Y-103378000D01*
X149733000Y-90678000D02*
X149733000Y-99695000D01*
X152400000Y-88011000D02*
X149733000Y-90678000D01*
X152400000Y-87409000D02*
X152400000Y-88011000D01*
%TO.N,Net-(J1-Pad12)*%
X148590000Y-83185000D02*
X148590000Y-82009000D01*
X147574000Y-84201000D02*
X148590000Y-83185000D01*
X147574000Y-84582000D02*
X147574000Y-84201000D01*
%TO.N,Net-(J1-Pad5)*%
X149225000Y-97663000D02*
X146050000Y-100838000D01*
X149225000Y-89789000D02*
X149225000Y-97663000D01*
X151130000Y-87884000D02*
X149225000Y-89789000D01*
X151130000Y-87409000D02*
X151130000Y-87884000D01*
%TO.N,Net-(J1-Pad11)*%
X149860000Y-83502500D02*
X149860000Y-82009000D01*
X149098000Y-84264500D02*
X149860000Y-83502500D01*
X149098000Y-84582000D02*
X149098000Y-84264500D01*
%TO.N,Net-(J1-Pad4)*%
X148717000Y-95631000D02*
X146050000Y-98298000D01*
X148717000Y-89281000D02*
X148717000Y-95631000D01*
X149860000Y-88138000D02*
X148717000Y-89281000D01*
X149860000Y-87409000D02*
X149860000Y-88138000D01*
%TO.N,Net-(J1-Pad10)*%
X151130000Y-83684750D02*
X151130000Y-82009000D01*
X150622000Y-84192750D02*
X151130000Y-83684750D01*
X150622000Y-84582000D02*
X150622000Y-84192750D01*
%TO.N,Net-(J1-Pad3)*%
X148209000Y-93599000D02*
X146050000Y-95758000D01*
X148209000Y-88773000D02*
X148209000Y-93599000D01*
X148590000Y-88392000D02*
X148209000Y-88773000D01*
X148590000Y-87409000D02*
X148590000Y-88392000D01*
%TO.N,Net-(J1-Pad9)*%
X152400000Y-83820000D02*
X152400000Y-82009000D01*
X151638000Y-84582000D02*
X152400000Y-83820000D01*
%TO.N,Net-(J1-Pad2)*%
X147637500Y-92011500D02*
X146431000Y-93218000D01*
X146431000Y-93218000D02*
X146050000Y-93218000D01*
X147637500Y-88773000D02*
X147637500Y-92011500D01*
X147320000Y-88455500D02*
X147637500Y-88773000D01*
X147320000Y-87409000D02*
X147320000Y-88455500D01*
%TO.N,Net-(J1-Pad8)*%
X153162000Y-84582000D02*
X153670000Y-84074000D01*
X153670000Y-84074000D02*
X153670000Y-82009000D01*
%TO.N,Net-(J1-Pad1)*%
X146050000Y-87409000D02*
X146050000Y-90678000D01*
D16*
%TO.N,Net-(C1-Pad2)*%
X152654000Y-90678000D02*
X153670000Y-90678000D01*
X151384000Y-91948000D02*
X152654000Y-90678000D01*
X151384000Y-105419000D02*
X151384000Y-91948000D01*
X150885000Y-105918000D02*
X151384000Y-105419000D01*
D15*
X153670000Y-89916000D02*
X153670000Y-90678000D01*
X154686000Y-88900000D02*
X153670000Y-89916000D01*
X154686000Y-85852000D02*
X154686000Y-88900000D01*
X154178000Y-85344000D02*
X154686000Y-85852000D01*
X145923000Y-85344000D02*
X154178000Y-85344000D01*
X145542000Y-84963000D02*
X145923000Y-85344000D01*
X145542000Y-82517000D02*
X145542000Y-84963000D01*
X146050000Y-82009000D02*
X145542000Y-82517000D01*
D16*
%TO.N,Net-(C1-Pad1)*%
X146050000Y-105918000D02*
X148835000Y-105918000D01*
D15*
X148835000Y-103006000D02*
X148835000Y-105918000D01*
X150241000Y-101600000D02*
X148835000Y-103006000D01*
X150241000Y-91567000D02*
X150241000Y-101600000D01*
X153670000Y-88138000D02*
X150241000Y-91567000D01*
X153670000Y-87409000D02*
X153670000Y-88138000D01*
%TD*%
M02*
