M48
; DRILL file {KiCad 5.1.9+dfsg1-1+deb11u1} date Wed Feb 19 16:08:44 2025
; FORMAT={-:-/ absolute / metric / decimal}
; #@! TF.CreationDate,2025-02-19T16:08:44-08:00
; #@! TF.GenerationSoftware,Kicad,Pcbnew,5.1.9+dfsg1-1+deb11u1
FMAT,2
METRIC
T1C0.400
T2C0.800
%
G90
G05
T1
X146.431Y-84.582
X147.574Y-84.582
X149.098Y-84.582
X150.622Y-84.582
X151.638Y-84.582
X153.162Y-84.582
T2
X146.05Y-90.678
X146.05Y-93.218
X146.05Y-95.758
X146.05Y-98.298
X146.05Y-100.838
X146.05Y-103.378
X146.05Y-105.918
X153.67Y-90.678
X153.67Y-93.218
X153.67Y-95.758
X153.67Y-98.298
X153.67Y-100.838
X153.67Y-103.378
X153.67Y-105.918
T0
M30
