%TF.GenerationSoftware,KiCad,Pcbnew,5.1.9+dfsg1-1+deb11u1*%
%TF.CreationDate,2025-02-04T19:42:45-08:00*%
%TF.ProjectId,soic14,736f6963-3134-42e6-9b69-6361645f7063,rev?*%
%TF.SameCoordinates,Original*%
%TF.FileFunction,Copper,L1,Top*%
%TF.FilePolarity,Positive*%
%FSLAX46Y46*%
G04 Gerber Fmt 4.6, Leading zero omitted, Abs format (unit mm)*
G04 Created by KiCad (PCBNEW 5.1.9+dfsg1-1+deb11u1) date 2025-02-04 19:42:45*
%MOMM*%
%LPD*%
G01*
G04 APERTURE LIST*
%TA.AperFunction,NonConductor*%
%ADD10C,0.200000*%
%TD*%
%TA.AperFunction,SMDPad,CuDef*%
%ADD11R,0.600000X1.500000*%
%TD*%
%TA.AperFunction,ComponentPad*%
%ADD12O,2.400000X1.600000*%
%TD*%
%TA.AperFunction,ComponentPad*%
%ADD13R,2.400000X1.600000*%
%TD*%
%TA.AperFunction,ViaPad*%
%ADD14C,0.800000*%
%TD*%
%TA.AperFunction,Conductor*%
%ADD15C,0.250000*%
%TD*%
G04 APERTURE END LIST*
D10*
X149010806Y-106712874D02*
X148303699Y-106005768D01*
X149044478Y-106275142D01*
X148775104Y-105534363D01*
X149482210Y-106241470D01*
X149246508Y-105062959D02*
X149381195Y-104928271D01*
X149482210Y-104894600D01*
X149616897Y-104894600D01*
X149785256Y-104995615D01*
X150020959Y-105231317D01*
X150121974Y-105399676D01*
X150121974Y-105534363D01*
X150088302Y-105635378D01*
X149953615Y-105770065D01*
X149852600Y-105803737D01*
X149717913Y-105803737D01*
X149549554Y-105702722D01*
X149313852Y-105467020D01*
X149212836Y-105298661D01*
X149212836Y-105163974D01*
X149246508Y-105062959D01*
X150559707Y-105163974D02*
X149852600Y-104456867D01*
X150189317Y-104793584D02*
X150593378Y-104389523D01*
X150963768Y-104759913D02*
X150256661Y-104052806D01*
X151704546Y-104019134D02*
X151132126Y-103918119D01*
X151300485Y-104423195D02*
X150593378Y-103716088D01*
X150862752Y-103446714D01*
X150963768Y-103413043D01*
X151031111Y-103413043D01*
X151132126Y-103446714D01*
X151233142Y-103547730D01*
X151266813Y-103648745D01*
X151266813Y-103716088D01*
X151233142Y-103817104D01*
X150963768Y-104086478D01*
X150701128Y-106147189D02*
X150701128Y-106079846D01*
X150734800Y-105978831D01*
X150903159Y-105810472D01*
X151004174Y-105776800D01*
X151071518Y-105776800D01*
X151172533Y-105810472D01*
X151239876Y-105877815D01*
X151307220Y-106012502D01*
X151307220Y-106820624D01*
X151744953Y-106382892D01*
D11*
%TO.P,J2,14*%
%TO.N,Net-(J1-Pad14)*%
X146050000Y-82009000D03*
%TO.P,J2,13*%
%TO.N,Net-(J1-Pad13)*%
X147320000Y-82009000D03*
%TO.P,J2,12*%
%TO.N,Net-(J1-Pad12)*%
X148590000Y-82009000D03*
%TO.P,J2,11*%
%TO.N,Net-(J1-Pad11)*%
X149860000Y-82009000D03*
%TO.P,J2,10*%
%TO.N,Net-(J1-Pad10)*%
X151130000Y-82009000D03*
%TO.P,J2,9*%
%TO.N,Net-(J1-Pad9)*%
X152400000Y-82009000D03*
%TO.P,J2,8*%
%TO.N,Net-(J1-Pad8)*%
X153670000Y-82009000D03*
%TO.P,J2,7*%
%TO.N,Net-(J1-Pad7)*%
X153670000Y-87409000D03*
%TO.P,J2,6*%
%TO.N,Net-(J1-Pad6)*%
X152400000Y-87409000D03*
%TO.P,J2,5*%
%TO.N,Net-(J1-Pad5)*%
X151130000Y-87409000D03*
%TO.P,J2,4*%
%TO.N,Net-(J1-Pad4)*%
X149860000Y-87409000D03*
%TO.P,J2,3*%
%TO.N,Net-(J1-Pad3)*%
X148590000Y-87409000D03*
%TO.P,J2,2*%
%TO.N,Net-(J1-Pad2)*%
X147320000Y-87409000D03*
%TO.P,J2,1*%
%TO.N,Net-(J1-Pad1)*%
X146050000Y-87409000D03*
%TD*%
D12*
%TO.P,J1,14*%
%TO.N,Net-(J1-Pad14)*%
X153670000Y-90678000D03*
%TO.P,J1,7*%
%TO.N,Net-(J1-Pad7)*%
X146050000Y-105918000D03*
%TO.P,J1,13*%
%TO.N,Net-(J1-Pad13)*%
X153670000Y-93218000D03*
%TO.P,J1,6*%
%TO.N,Net-(J1-Pad6)*%
X146050000Y-103378000D03*
%TO.P,J1,12*%
%TO.N,Net-(J1-Pad12)*%
X153670000Y-95758000D03*
%TO.P,J1,5*%
%TO.N,Net-(J1-Pad5)*%
X146050000Y-100838000D03*
%TO.P,J1,11*%
%TO.N,Net-(J1-Pad11)*%
X153670000Y-98298000D03*
%TO.P,J1,4*%
%TO.N,Net-(J1-Pad4)*%
X146050000Y-98298000D03*
%TO.P,J1,10*%
%TO.N,Net-(J1-Pad10)*%
X153670000Y-100838000D03*
%TO.P,J1,3*%
%TO.N,Net-(J1-Pad3)*%
X146050000Y-95758000D03*
%TO.P,J1,9*%
%TO.N,Net-(J1-Pad9)*%
X153670000Y-103378000D03*
%TO.P,J1,2*%
%TO.N,Net-(J1-Pad2)*%
X146050000Y-93218000D03*
%TO.P,J1,8*%
%TO.N,Net-(J1-Pad8)*%
X153670000Y-105918000D03*
D13*
%TO.P,J1,1*%
%TO.N,Net-(J1-Pad1)*%
X146050000Y-90678000D03*
%TD*%
D14*
%TO.N,Net-(J1-Pad13)*%
X146558000Y-83566000D03*
%TO.N,Net-(J1-Pad12)*%
X147320000Y-84582000D03*
%TO.N,Net-(J1-Pad11)*%
X148844000Y-84582000D03*
%TO.N,Net-(J1-Pad10)*%
X150622000Y-85344000D03*
%TO.N,Net-(J1-Pad9)*%
X151892000Y-85344000D03*
%TO.N,Net-(J1-Pad8)*%
X153162000Y-84074000D03*
%TD*%
D15*
%TO.N,Net-(J1-Pad14)*%
X145669000Y-82390000D02*
X146050000Y-82009000D01*
X145669000Y-85471000D02*
X145669000Y-82390000D01*
X154686000Y-88900000D02*
X154686000Y-86614000D01*
X154305000Y-86233000D02*
X146431000Y-86233000D01*
X153670000Y-89916000D02*
X154686000Y-88900000D01*
X146431000Y-86233000D02*
X145669000Y-85471000D01*
X154686000Y-86614000D02*
X154305000Y-86233000D01*
X153670000Y-90678000D02*
X153670000Y-89916000D01*
%TO.N,Net-(J1-Pad7)*%
X147701000Y-105918000D02*
X146050000Y-105918000D01*
X150622000Y-102997000D02*
X147701000Y-105918000D01*
X150622000Y-91186000D02*
X150622000Y-102997000D01*
X153670000Y-88138000D02*
X150622000Y-91186000D01*
X153670000Y-87409000D02*
X153670000Y-88138000D01*
%TO.N,Net-(J1-Pad13)*%
X147320000Y-82804000D02*
X147320000Y-82009000D01*
X146558000Y-83566000D02*
X147320000Y-82804000D01*
%TO.N,Net-(J1-Pad6)*%
X147574000Y-103378000D02*
X146050000Y-103378000D01*
X149987000Y-100965000D02*
X147574000Y-103378000D01*
X149987000Y-90424000D02*
X149987000Y-100965000D01*
X152400000Y-88011000D02*
X149987000Y-90424000D01*
X152400000Y-87409000D02*
X152400000Y-88011000D01*
%TO.N,Net-(J1-Pad12)*%
X148590000Y-83312000D02*
X148590000Y-82009000D01*
X147320000Y-84582000D02*
X148590000Y-83312000D01*
%TO.N,Net-(J1-Pad5)*%
X147574000Y-100838000D02*
X146050000Y-100838000D01*
X149479000Y-98933000D02*
X147574000Y-100838000D01*
X149479000Y-89535000D02*
X149479000Y-98933000D01*
X151130000Y-87884000D02*
X149479000Y-89535000D01*
X151130000Y-87409000D02*
X151130000Y-87884000D01*
%TO.N,Net-(J1-Pad11)*%
X149860000Y-83566000D02*
X149860000Y-82009000D01*
X148844000Y-84582000D02*
X149860000Y-83566000D01*
%TO.N,Net-(J1-Pad4)*%
X147574000Y-98298000D02*
X146050000Y-98298000D01*
X148971000Y-96901000D02*
X147574000Y-98298000D01*
X148971000Y-89027000D02*
X148971000Y-96901000D01*
X149860000Y-88138000D02*
X148971000Y-89027000D01*
X149860000Y-87409000D02*
X149860000Y-88138000D01*
%TO.N,Net-(J1-Pad10)*%
X151130000Y-83168500D02*
X151130000Y-82009000D01*
X150622000Y-83676500D02*
X151130000Y-83168500D01*
X150622000Y-85344000D02*
X150622000Y-83676500D01*
%TO.N,Net-(J1-Pad3)*%
X148463000Y-94869000D02*
X147574000Y-95758000D01*
X147574000Y-95758000D02*
X146050000Y-95758000D01*
X148463000Y-88519000D02*
X148463000Y-94869000D01*
X148590000Y-88392000D02*
X148463000Y-88519000D01*
X148590000Y-87409000D02*
X148590000Y-88392000D01*
%TO.N,Net-(J1-Pad9)*%
X152400000Y-84836000D02*
X152400000Y-82009000D01*
X151892000Y-85344000D02*
X152400000Y-84836000D01*
%TO.N,Net-(J1-Pad2)*%
X147955000Y-92837000D02*
X147574000Y-93218000D01*
X147955000Y-89916000D02*
X147955000Y-92837000D01*
X147320000Y-89281000D02*
X147955000Y-89916000D01*
X147574000Y-93218000D02*
X146050000Y-93218000D01*
X147320000Y-87409000D02*
X147320000Y-89281000D01*
%TO.N,Net-(J1-Pad8)*%
X153670000Y-83566000D02*
X153670000Y-82009000D01*
X153162000Y-84074000D02*
X153670000Y-83566000D01*
%TO.N,Net-(J1-Pad1)*%
X146050000Y-87409000D02*
X146050000Y-90678000D01*
%TD*%
M02*
