M48
; DRILL file {KiCad 5.1.9+dfsg1-1+deb11u1} date Tue Feb  4 19:42:39 2025
; FORMAT={-:-/ absolute / metric / decimal}
; #@! TF.CreationDate,2025-02-04T19:42:39-08:00
; #@! TF.GenerationSoftware,Kicad,Pcbnew,5.1.9+dfsg1-1+deb11u1
FMAT,2
METRIC
T1C0.400
T2C0.800
%
G90
G05
T1
X146.558Y-83.566
X147.32Y-84.582
X148.844Y-84.582
X150.622Y-85.344
X151.892Y-85.344
X153.162Y-84.074
T2
X146.05Y-90.678
X146.05Y-93.218
X146.05Y-95.758
X146.05Y-98.298
X146.05Y-100.838
X146.05Y-103.378
X146.05Y-105.918
X153.67Y-90.678
X153.67Y-93.218
X153.67Y-95.758
X153.67Y-98.298
X153.67Y-100.838
X153.67Y-103.378
X153.67Y-105.918
T0
M30
