%TF.GenerationSoftware,KiCad,Pcbnew,5.1.9+dfsg1-1+deb11u1*%
%TF.CreationDate,2025-02-19T16:08:48-08:00*%
%TF.ProjectId,soic14,736f6963-3134-42e6-9b69-6361645f7063,rev?*%
%TF.SameCoordinates,Original*%
%TF.FileFunction,Legend,Bot*%
%TF.FilePolarity,Positive*%
%FSLAX46Y46*%
G04 Gerber Fmt 4.6, Leading zero omitted, Abs format (unit mm)*
G04 Created by KiCad (PCBNEW 5.1.9+dfsg1-1+deb11u1) date 2025-02-19 16:08:48*
%MOMM*%
%LPD*%
G01*
G04 APERTURE LIST*
%ADD10C,0.150000*%
G04 APERTURE END LIST*
D10*
X151010428Y-104004285D02*
X151010428Y-103670952D01*
X150486619Y-103528095D02*
X150486619Y-104004285D01*
X151486619Y-104004285D01*
X151486619Y-103528095D01*
X151153285Y-103194761D02*
X150486619Y-102956666D01*
X151153285Y-102718571D01*
X150534238Y-101956666D02*
X150486619Y-102051904D01*
X150486619Y-102242380D01*
X150534238Y-102337619D01*
X150629476Y-102385238D01*
X151010428Y-102385238D01*
X151105666Y-102337619D01*
X151153285Y-102242380D01*
X151153285Y-102051904D01*
X151105666Y-101956666D01*
X151010428Y-101909047D01*
X150915190Y-101909047D01*
X150819952Y-102385238D01*
X150486619Y-101480476D02*
X151153285Y-101480476D01*
X150962809Y-101480476D02*
X151058047Y-101432857D01*
X151105666Y-101385238D01*
X151153285Y-101290000D01*
X151153285Y-101194761D01*
X151153285Y-100956666D02*
X150486619Y-100718571D01*
X151153285Y-100480476D02*
X150486619Y-100718571D01*
X150248523Y-100813809D01*
X150200904Y-100861428D01*
X150153285Y-100956666D01*
X150486619Y-99956666D02*
X150534238Y-100051904D01*
X150581857Y-100099523D01*
X150677095Y-100147142D01*
X150962809Y-100147142D01*
X151058047Y-100099523D01*
X151105666Y-100051904D01*
X151153285Y-99956666D01*
X151153285Y-99813809D01*
X151105666Y-99718571D01*
X151058047Y-99670952D01*
X150962809Y-99623333D01*
X150677095Y-99623333D01*
X150581857Y-99670952D01*
X150534238Y-99718571D01*
X150486619Y-99813809D01*
X150486619Y-99956666D01*
X151153285Y-99194761D02*
X150486619Y-99194761D01*
X151058047Y-99194761D02*
X151105666Y-99147142D01*
X151153285Y-99051904D01*
X151153285Y-98909047D01*
X151105666Y-98813809D01*
X151010428Y-98766190D01*
X150486619Y-98766190D01*
X150534238Y-97909047D02*
X150486619Y-98004285D01*
X150486619Y-98194761D01*
X150534238Y-98290000D01*
X150629476Y-98337619D01*
X151010428Y-98337619D01*
X151105666Y-98290000D01*
X151153285Y-98194761D01*
X151153285Y-98004285D01*
X151105666Y-97909047D01*
X151010428Y-97861428D01*
X150915190Y-97861428D01*
X150819952Y-98337619D01*
X150486619Y-96528095D02*
X150534238Y-96623333D01*
X150581857Y-96670952D01*
X150677095Y-96718571D01*
X150962809Y-96718571D01*
X151058047Y-96670952D01*
X151105666Y-96623333D01*
X151153285Y-96528095D01*
X151153285Y-96385238D01*
X151105666Y-96290000D01*
X151058047Y-96242380D01*
X150962809Y-96194761D01*
X150677095Y-96194761D01*
X150581857Y-96242380D01*
X150534238Y-96290000D01*
X150486619Y-96385238D01*
X150486619Y-96528095D01*
X151153285Y-95909047D02*
X151153285Y-95528095D01*
X150486619Y-95766190D02*
X151343761Y-95766190D01*
X151439000Y-95718571D01*
X151486619Y-95623333D01*
X151486619Y-95528095D01*
X151153285Y-94528095D02*
X150486619Y-94290000D01*
X151153285Y-94051904D02*
X150486619Y-94290000D01*
X150248523Y-94385238D01*
X150200904Y-94432857D01*
X150153285Y-94528095D01*
X150486619Y-93528095D02*
X150534238Y-93623333D01*
X150581857Y-93670952D01*
X150677095Y-93718571D01*
X150962809Y-93718571D01*
X151058047Y-93670952D01*
X151105666Y-93623333D01*
X151153285Y-93528095D01*
X151153285Y-93385238D01*
X151105666Y-93290000D01*
X151058047Y-93242380D01*
X150962809Y-93194761D01*
X150677095Y-93194761D01*
X150581857Y-93242380D01*
X150534238Y-93290000D01*
X150486619Y-93385238D01*
X150486619Y-93528095D01*
X151153285Y-92337619D02*
X150486619Y-92337619D01*
X151153285Y-92766190D02*
X150629476Y-92766190D01*
X150534238Y-92718571D01*
X150486619Y-92623333D01*
X150486619Y-92480476D01*
X150534238Y-92385238D01*
X150581857Y-92337619D01*
X148884238Y-105480476D02*
X148836619Y-105575714D01*
X148836619Y-105766190D01*
X148884238Y-105861428D01*
X148931857Y-105909047D01*
X149027095Y-105956666D01*
X149312809Y-105956666D01*
X149408047Y-105909047D01*
X149455666Y-105861428D01*
X149503285Y-105766190D01*
X149503285Y-105575714D01*
X149455666Y-105480476D01*
X148836619Y-104909047D02*
X148884238Y-105004285D01*
X148931857Y-105051904D01*
X149027095Y-105099523D01*
X149312809Y-105099523D01*
X149408047Y-105051904D01*
X149455666Y-105004285D01*
X149503285Y-104909047D01*
X149503285Y-104766190D01*
X149455666Y-104670952D01*
X149408047Y-104623333D01*
X149312809Y-104575714D01*
X149027095Y-104575714D01*
X148931857Y-104623333D01*
X148884238Y-104670952D01*
X148836619Y-104766190D01*
X148836619Y-104909047D01*
X149503285Y-103718571D02*
X148836619Y-103718571D01*
X149503285Y-104147142D02*
X148979476Y-104147142D01*
X148884238Y-104099523D01*
X148836619Y-104004285D01*
X148836619Y-103861428D01*
X148884238Y-103766190D01*
X148931857Y-103718571D01*
X148836619Y-103099523D02*
X148884238Y-103194761D01*
X148979476Y-103242380D01*
X149836619Y-103242380D01*
X148836619Y-102290000D02*
X149836619Y-102290000D01*
X148884238Y-102290000D02*
X148836619Y-102385238D01*
X148836619Y-102575714D01*
X148884238Y-102670952D01*
X148931857Y-102718571D01*
X149027095Y-102766190D01*
X149312809Y-102766190D01*
X149408047Y-102718571D01*
X149455666Y-102670952D01*
X149503285Y-102575714D01*
X149503285Y-102385238D01*
X149455666Y-102290000D01*
X149503285Y-101051904D02*
X148503285Y-101051904D01*
X149455666Y-101051904D02*
X149503285Y-100956666D01*
X149503285Y-100766190D01*
X149455666Y-100670952D01*
X149408047Y-100623333D01*
X149312809Y-100575714D01*
X149027095Y-100575714D01*
X148931857Y-100623333D01*
X148884238Y-100670952D01*
X148836619Y-100766190D01*
X148836619Y-100956666D01*
X148884238Y-101051904D01*
X148836619Y-100004285D02*
X148884238Y-100099523D01*
X148979476Y-100147142D01*
X149836619Y-100147142D01*
X148836619Y-99194761D02*
X149360428Y-99194761D01*
X149455666Y-99242380D01*
X149503285Y-99337619D01*
X149503285Y-99528095D01*
X149455666Y-99623333D01*
X148884238Y-99194761D02*
X148836619Y-99290000D01*
X148836619Y-99528095D01*
X148884238Y-99623333D01*
X148979476Y-99670952D01*
X149074714Y-99670952D01*
X149169952Y-99623333D01*
X149217571Y-99528095D01*
X149217571Y-99290000D01*
X149265190Y-99194761D01*
X149503285Y-98813809D02*
X148836619Y-98575714D01*
X149503285Y-98337619D02*
X148836619Y-98575714D01*
X148598523Y-98670952D01*
X148550904Y-98718571D01*
X148503285Y-98813809D01*
X149503285Y-97337619D02*
X149503285Y-96956666D01*
X149836619Y-97194761D02*
X148979476Y-97194761D01*
X148884238Y-97147142D01*
X148836619Y-97051904D01*
X148836619Y-96956666D01*
X148836619Y-96623333D02*
X149836619Y-96623333D01*
X148836619Y-96194761D02*
X149360428Y-96194761D01*
X149455666Y-96242380D01*
X149503285Y-96337619D01*
X149503285Y-96480476D01*
X149455666Y-96575714D01*
X149408047Y-96623333D01*
X148836619Y-95718571D02*
X149503285Y-95718571D01*
X149836619Y-95718571D02*
X149789000Y-95766190D01*
X149741380Y-95718571D01*
X149789000Y-95670952D01*
X149836619Y-95718571D01*
X149741380Y-95718571D01*
X148884238Y-95290000D02*
X148836619Y-95194761D01*
X148836619Y-95004285D01*
X148884238Y-94909047D01*
X148979476Y-94861428D01*
X149027095Y-94861428D01*
X149122333Y-94909047D01*
X149169952Y-95004285D01*
X149169952Y-95147142D01*
X149217571Y-95242380D01*
X149312809Y-95290000D01*
X149360428Y-95290000D01*
X149455666Y-95242380D01*
X149503285Y-95147142D01*
X149503285Y-95004285D01*
X149455666Y-94909047D01*
X149503285Y-93242380D02*
X148693761Y-93242380D01*
X148598523Y-93290000D01*
X148550904Y-93337619D01*
X148503285Y-93432857D01*
X148503285Y-93575714D01*
X148550904Y-93670952D01*
X148884238Y-93242380D02*
X148836619Y-93337619D01*
X148836619Y-93528095D01*
X148884238Y-93623333D01*
X148931857Y-93670952D01*
X149027095Y-93718571D01*
X149312809Y-93718571D01*
X149408047Y-93670952D01*
X149455666Y-93623333D01*
X149503285Y-93528095D01*
X149503285Y-93337619D01*
X149455666Y-93242380D01*
X148836619Y-92337619D02*
X149360428Y-92337619D01*
X149455666Y-92385238D01*
X149503285Y-92480476D01*
X149503285Y-92670952D01*
X149455666Y-92766190D01*
X148884238Y-92337619D02*
X148836619Y-92432857D01*
X148836619Y-92670952D01*
X148884238Y-92766190D01*
X148979476Y-92813809D01*
X149074714Y-92813809D01*
X149169952Y-92766190D01*
X149217571Y-92670952D01*
X149217571Y-92432857D01*
X149265190Y-92337619D01*
X148836619Y-91861428D02*
X149503285Y-91861428D01*
X149408047Y-91861428D02*
X149455666Y-91813809D01*
X149503285Y-91718571D01*
X149503285Y-91575714D01*
X149455666Y-91480476D01*
X149360428Y-91432857D01*
X148836619Y-91432857D01*
X149360428Y-91432857D02*
X149455666Y-91385238D01*
X149503285Y-91290000D01*
X149503285Y-91147142D01*
X149455666Y-91051904D01*
X149360428Y-91004285D01*
X148836619Y-91004285D01*
X148884238Y-90147142D02*
X148836619Y-90242380D01*
X148836619Y-90432857D01*
X148884238Y-90528095D01*
X148979476Y-90575714D01*
X149360428Y-90575714D01*
X149455666Y-90528095D01*
X149503285Y-90432857D01*
X149503285Y-90242380D01*
X149455666Y-90147142D01*
X149360428Y-90099523D01*
X149265190Y-90099523D01*
X149169952Y-90575714D01*
X148931857Y-89670952D02*
X148884238Y-89623333D01*
X148836619Y-89670952D01*
X148884238Y-89718571D01*
X148931857Y-89670952D01*
X148836619Y-89670952D01*
M02*
