M48
; DRILL file {KiCad 5.1.9+dfsg1-1+deb11u1} date Tue Feb  4 19:18:09 2025
; FORMAT={-:-/ absolute / metric / decimal}
; #@! TF.CreationDate,2025-02-04T19:18:09-08:00
; #@! TF.GenerationSoftware,Kicad,Pcbnew,5.1.9+dfsg1-1+deb11u1
FMAT,2
METRIC
T1C0.400
T2C0.800
%
G90
G05
T1
X146.431Y-83.185
X146.431Y-84.328
X148.463Y-84.709
X149.987Y-85.471
X151.13Y-84.709
X152.654Y-84.328
T2
X146.05Y-90.678
X146.05Y-93.218
X146.05Y-95.758
X146.05Y-98.298
X146.05Y-100.838
X146.05Y-103.378
X146.05Y-105.918
X153.67Y-90.678
X153.67Y-93.218
X153.67Y-95.758
X153.67Y-98.298
X153.67Y-100.838
X153.67Y-103.378
X153.67Y-105.918
T0
M30
