%TF.GenerationSoftware,KiCad,Pcbnew,5.1.9+dfsg1-1+deb11u1*%
%TF.CreationDate,2025-02-19T16:08:48-08:00*%
%TF.ProjectId,soic14,736f6963-3134-42e6-9b69-6361645f7063,rev?*%
%TF.SameCoordinates,Original*%
%TF.FileFunction,Copper,L2,Bot*%
%TF.FilePolarity,Positive*%
%FSLAX46Y46*%
G04 Gerber Fmt 4.6, Leading zero omitted, Abs format (unit mm)*
G04 Created by KiCad (PCBNEW 5.1.9+dfsg1-1+deb11u1) date 2025-02-19 16:08:48*
%MOMM*%
%LPD*%
G01*
G04 APERTURE LIST*
%TA.AperFunction,ComponentPad*%
%ADD10O,2.400000X1.600000*%
%TD*%
%TA.AperFunction,ComponentPad*%
%ADD11R,2.400000X1.600000*%
%TD*%
%TA.AperFunction,ViaPad*%
%ADD12C,0.800000*%
%TD*%
%TA.AperFunction,Conductor*%
%ADD13C,0.250000*%
%TD*%
%TA.AperFunction,Conductor*%
%ADD14C,0.500000*%
%TD*%
G04 APERTURE END LIST*
D10*
%TO.P,J1,14*%
%TO.N,Net-(C1-Pad2)*%
X153670000Y-90678000D03*
%TO.P,J1,7*%
%TO.N,Net-(C1-Pad1)*%
X146050000Y-105918000D03*
%TO.P,J1,13*%
%TO.N,Net-(J1-Pad13)*%
X153670000Y-93218000D03*
%TO.P,J1,6*%
%TO.N,Net-(J1-Pad6)*%
X146050000Y-103378000D03*
%TO.P,J1,12*%
%TO.N,Net-(J1-Pad12)*%
X153670000Y-95758000D03*
%TO.P,J1,5*%
%TO.N,Net-(J1-Pad5)*%
X146050000Y-100838000D03*
%TO.P,J1,11*%
%TO.N,Net-(J1-Pad11)*%
X153670000Y-98298000D03*
%TO.P,J1,4*%
%TO.N,Net-(J1-Pad4)*%
X146050000Y-98298000D03*
%TO.P,J1,10*%
%TO.N,Net-(J1-Pad10)*%
X153670000Y-100838000D03*
%TO.P,J1,3*%
%TO.N,Net-(J1-Pad3)*%
X146050000Y-95758000D03*
%TO.P,J1,9*%
%TO.N,Net-(J1-Pad9)*%
X153670000Y-103378000D03*
%TO.P,J1,2*%
%TO.N,Net-(J1-Pad2)*%
X146050000Y-93218000D03*
%TO.P,J1,8*%
%TO.N,Net-(J1-Pad8)*%
X153670000Y-105918000D03*
D11*
%TO.P,J1,1*%
%TO.N,Net-(J1-Pad1)*%
X146050000Y-90678000D03*
%TD*%
D12*
%TO.N,Net-(J1-Pad13)*%
X146431000Y-84582000D03*
%TO.N,Net-(J1-Pad12)*%
X147574000Y-84582000D03*
%TO.N,Net-(J1-Pad11)*%
X149098000Y-84582000D03*
%TO.N,Net-(J1-Pad10)*%
X150622000Y-84582000D03*
%TO.N,Net-(J1-Pad9)*%
X151638000Y-84582000D03*
%TO.N,Net-(J1-Pad8)*%
X153162000Y-84582000D03*
%TD*%
D13*
%TO.N,Net-(J1-Pad13)*%
X152400000Y-91948000D02*
X153670000Y-93218000D01*
X151892000Y-91440000D02*
X152400000Y-91948000D01*
X151892000Y-87884000D02*
X151892000Y-91440000D01*
X154686000Y-85090000D02*
X151892000Y-87884000D01*
X154686000Y-83947000D02*
X154686000Y-85090000D01*
X152527000Y-81788000D02*
X154686000Y-83947000D01*
X148844000Y-81788000D02*
X152527000Y-81788000D01*
X146431000Y-84201000D02*
X148844000Y-81788000D01*
X146431000Y-84582000D02*
X146431000Y-84201000D01*
%TO.N,Net-(J1-Pad12)*%
X153924000Y-83947000D02*
X153924000Y-84963000D01*
X151384000Y-93472000D02*
X153670000Y-95758000D01*
X151384000Y-87503000D02*
X151384000Y-93472000D01*
X152273000Y-82296000D02*
X153924000Y-83947000D01*
X149098000Y-82296000D02*
X152273000Y-82296000D01*
X147574000Y-83820000D02*
X149098000Y-82296000D01*
X153924000Y-84963000D02*
X151384000Y-87503000D01*
X147574000Y-84582000D02*
X147574000Y-83820000D01*
%TO.N,Net-(J1-Pad11)*%
X150876000Y-95504000D02*
X153670000Y-98298000D01*
X150876000Y-86741000D02*
X150876000Y-95504000D01*
X151638000Y-83312000D02*
X152400000Y-84074000D01*
X149606000Y-83312000D02*
X151638000Y-83312000D01*
X149098000Y-83820000D02*
X149606000Y-83312000D01*
X152400000Y-85217000D02*
X150876000Y-86741000D01*
X152400000Y-84074000D02*
X152400000Y-85217000D01*
X149098000Y-84582000D02*
X149098000Y-83820000D01*
%TO.N,Net-(J1-Pad10)*%
X150368000Y-97536000D02*
X153670000Y-100838000D01*
X150368000Y-84836000D02*
X150368000Y-97536000D01*
X150622000Y-84582000D02*
X150368000Y-84836000D01*
%TO.N,Net-(J1-Pad9)*%
X149860000Y-99568000D02*
X153670000Y-103378000D01*
X149860000Y-84074000D02*
X149860000Y-99568000D01*
X150114000Y-83820000D02*
X149860000Y-84074000D01*
X151257000Y-83820000D02*
X150114000Y-83820000D01*
X151638000Y-84201000D02*
X151257000Y-83820000D01*
X151638000Y-84582000D02*
X151638000Y-84201000D01*
%TO.N,Net-(J1-Pad8)*%
X148336000Y-100584000D02*
X153670000Y-105918000D01*
X148336000Y-83820000D02*
X148336000Y-100584000D01*
X149352000Y-82804000D02*
X148336000Y-83820000D01*
X151892000Y-82804000D02*
X149352000Y-82804000D01*
X153162000Y-84074000D02*
X151892000Y-82804000D01*
X153162000Y-84582000D02*
X153162000Y-84074000D01*
D14*
%TO.N,Net-(C1-Pad1)*%
X146050000Y-105918000D02*
X146685000Y-105918000D01*
%TD*%
M02*
