%TF.GenerationSoftware,KiCad,Pcbnew,5.1.9+dfsg1-1+deb11u1*%
%TF.CreationDate,2025-02-04T19:18:14-08:00*%
%TF.ProjectId,soic14,736f6963-3134-42e6-9b69-6361645f7063,rev?*%
%TF.SameCoordinates,Original*%
%TF.FileFunction,Legend,Top*%
%TF.FilePolarity,Positive*%
%FSLAX46Y46*%
G04 Gerber Fmt 4.6, Leading zero omitted, Abs format (unit mm)*
G04 Created by KiCad (PCBNEW 5.1.9+dfsg1-1+deb11u1) date 2025-02-04 19:18:14*
%MOMM*%
%LPD*%
G01*
G04 APERTURE LIST*
%ADD10C,0.150000*%
%ADD11C,0.120000*%
G04 APERTURE END LIST*
D10*
X145978571Y-86304380D02*
X145883333Y-86256761D01*
X145835714Y-86209142D01*
X145788095Y-86113904D01*
X145788095Y-85828190D01*
X145835714Y-85732952D01*
X145883333Y-85685333D01*
X145978571Y-85637714D01*
X146121428Y-85637714D01*
X146216666Y-85685333D01*
X146264285Y-85732952D01*
X146311904Y-85828190D01*
X146311904Y-86113904D01*
X146264285Y-86209142D01*
X146216666Y-86256761D01*
X146121428Y-86304380D01*
X145978571Y-86304380D01*
X150211190Y-90766285D02*
X150173095Y-90980571D01*
X150173095Y-91337714D01*
X150211190Y-91480571D01*
X150249285Y-91552000D01*
X150325476Y-91623428D01*
X150401666Y-91623428D01*
X150477857Y-91552000D01*
X150515952Y-91480571D01*
X150554047Y-91337714D01*
X150592142Y-91052000D01*
X150630238Y-90909142D01*
X150668333Y-90837714D01*
X150744523Y-90766285D01*
X150820714Y-90766285D01*
X150896904Y-90837714D01*
X150935000Y-90909142D01*
X150973095Y-91052000D01*
X150973095Y-91409142D01*
X150935000Y-91623428D01*
X150973095Y-92052000D02*
X150973095Y-92909142D01*
X150173095Y-92480571D02*
X150973095Y-92480571D01*
X150173095Y-94266285D02*
X150554047Y-93766285D01*
X150173095Y-93409142D02*
X150973095Y-93409142D01*
X150973095Y-93980571D01*
X150935000Y-94123428D01*
X150896904Y-94194857D01*
X150820714Y-94266285D01*
X150706428Y-94266285D01*
X150630238Y-94194857D01*
X150592142Y-94123428D01*
X150554047Y-93980571D01*
X150554047Y-93409142D01*
X150401666Y-94837714D02*
X150401666Y-95552000D01*
X150173095Y-94694857D02*
X150973095Y-95194857D01*
X150173095Y-95694857D01*
X150173095Y-96194857D02*
X150973095Y-96194857D01*
X150173095Y-97052000D01*
X150973095Y-97052000D01*
X150935000Y-98552000D02*
X150973095Y-98409142D01*
X150973095Y-98194857D01*
X150935000Y-97980571D01*
X150858809Y-97837714D01*
X150782619Y-97766285D01*
X150630238Y-97694857D01*
X150515952Y-97694857D01*
X150363571Y-97766285D01*
X150287380Y-97837714D01*
X150211190Y-97980571D01*
X150173095Y-98194857D01*
X150173095Y-98337714D01*
X150211190Y-98552000D01*
X150249285Y-98623428D01*
X150515952Y-98623428D01*
X150515952Y-98337714D01*
X150592142Y-99266285D02*
X150592142Y-99766285D01*
X150173095Y-99980571D02*
X150173095Y-99266285D01*
X150973095Y-99266285D01*
X150973095Y-99980571D01*
X150211190Y-101694857D02*
X150173095Y-101909142D01*
X150173095Y-102266285D01*
X150211190Y-102409142D01*
X150249285Y-102480571D01*
X150325476Y-102552000D01*
X150401666Y-102552000D01*
X150477857Y-102480571D01*
X150515952Y-102409142D01*
X150554047Y-102266285D01*
X150592142Y-101980571D01*
X150630238Y-101837714D01*
X150668333Y-101766285D01*
X150744523Y-101694857D01*
X150820714Y-101694857D01*
X150896904Y-101766285D01*
X150935000Y-101837714D01*
X150973095Y-101980571D01*
X150973095Y-102337714D01*
X150935000Y-102552000D01*
X150973095Y-103480571D02*
X150973095Y-103766285D01*
X150935000Y-103909142D01*
X150858809Y-104052000D01*
X150706428Y-104123428D01*
X150439761Y-104123428D01*
X150287380Y-104052000D01*
X150211190Y-103909142D01*
X150173095Y-103766285D01*
X150173095Y-103480571D01*
X150211190Y-103337714D01*
X150287380Y-103194857D01*
X150439761Y-103123428D01*
X150706428Y-103123428D01*
X150858809Y-103194857D01*
X150935000Y-103337714D01*
X150973095Y-103480571D01*
X150173095Y-104766285D02*
X150973095Y-104766285D01*
X150249285Y-106337714D02*
X150211190Y-106266285D01*
X150173095Y-106052000D01*
X150173095Y-105909142D01*
X150211190Y-105694857D01*
X150287380Y-105552000D01*
X150363571Y-105480571D01*
X150515952Y-105409142D01*
X150630238Y-105409142D01*
X150782619Y-105480571D01*
X150858809Y-105552000D01*
X150935000Y-105694857D01*
X150973095Y-105909142D01*
X150973095Y-106052000D01*
X150935000Y-106266285D01*
X150896904Y-106337714D01*
X148823095Y-98266285D02*
X148823095Y-97409142D01*
X148823095Y-97837714D02*
X149623095Y-97837714D01*
X149508809Y-97694857D01*
X149432619Y-97552000D01*
X149394523Y-97409142D01*
X149356428Y-99552000D02*
X148823095Y-99552000D01*
X149661190Y-99194857D02*
X149089761Y-98837714D01*
X149089761Y-99766285D01*
%TO.C,J2*%
X145410000Y-86784000D02*
X145435000Y-86784000D01*
X145410000Y-82634000D02*
X145525000Y-82634000D01*
X154310000Y-82634000D02*
X154195000Y-82634000D01*
X154310000Y-86784000D02*
X154195000Y-86784000D01*
X145410000Y-86784000D02*
X145410000Y-82634000D01*
X154310000Y-86784000D02*
X154310000Y-82634000D01*
X145435000Y-86784000D02*
X145435000Y-88159000D01*
D11*
%TO.C,J1*%
X150860000Y-89348000D02*
G75*
G02*
X148860000Y-89348000I-1000000J0D01*
G01*
X148860000Y-89348000D02*
X147610000Y-89348000D01*
X147610000Y-89348000D02*
X147610000Y-107248000D01*
X147610000Y-107248000D02*
X152110000Y-107248000D01*
X152110000Y-107248000D02*
X152110000Y-89348000D01*
X152110000Y-89348000D02*
X150860000Y-89348000D01*
%TD*%
M02*
